<svg xmlns="http://www.w3.org/2000/svg" viewBox="0 0 800 500" width="800" height="500">
  <defs>
    <linearGradient id="bg" x1="0%" y1="0%" x2="100%" y2="100%">
      <stop offset="0%" stop-color="#fdf4ff"/>
      <stop offset="50%" stop-color="#fae8ff"/>
      <stop offset="100%" stop-color="#f5d0fe"/>
    </linearGradient>
    <linearGradient id="bottom-fade" x1="0%" y1="0%" x2="0%" y2="100%">
      <stop offset="0%" stop-color="#fae8ff" stop-opacity="0"/>
      <stop offset="100%" stop-color="#f5d0fe" stop-opacity="0.4"/>
    </linearGradient>
  </defs>

  <!-- Background -->
  <rect width="800" height="500" fill="url(#bg)"/>
  <rect width="800" height="500" fill="url(#bottom-fade)"/>

  <!-- Decorative bg circles -->
  <circle cx="100" cy="100" r="120" fill="#f5d0fe" opacity="0.25"/>
  <circle cx="700" cy="400" r="100" fill="#f5d0fe" opacity="0.2"/>
  <circle cx="750" cy="80" r="70" fill="#fae8ff" opacity="0.2"/>
  <circle cx="50" cy="430" r="80" fill="#fae8ff" opacity="0.18"/>

  <!-- Service Illustration -->
  
      <!-- Two side-by-side heart figures -->
      <path d="M330 330 Q310 305 305 285 Q300 265 315 252 Q330 240 345 255 Q360 240 375 252 Q390 265 385 285 Q380 305 360 325 Z" fill="#f9a8d4" opacity="0.65"/>
      <path d="M440 330 Q420 305 415 285 Q410 265 425 252 Q440 240 455 255 Q470 240 485 252 Q500 265 495 285 Q490 305 470 325 Z" fill="#f472b6" opacity="0.65"/>
      <!-- Shared glow -->
      <ellipse cx="395" cy="310" rx="90" ry="40" fill="#db2777" opacity="0.07"/>
      <!-- Small hearts floating -->
      <path d="M230 240 Q225 230 220 222 Q215 214 222 208 Q229 202 236 208 Q243 202 250 208 Q257 214 252 222 Q247 230 240 240Z" fill="#f9a8d4" opacity="0.5" transform="scale(0.6) translate(155,145)"/>
      <path d="M530 220 Q526 211 522 203 Q518 195 524 190 Q530 185 536 190 Q542 185 548 190 Q554 195 550 203 Q546 211 540 220Z" fill="#f472b6" opacity="0.5"/>
      <circle cx="399" cy="380" r="6" fill="#db2777" opacity="0.4"/>
    

  <!-- Top badge -->
  <rect x="30" y="28" width="180" height="36" rx="18" fill="#db2777" opacity="0.15"/>
  <text x="120" y="52" text-anchor="middle" font-family="Georgia, serif" font-size="13" fill="#831843" font-weight="600" opacity="0.8">Pink Bra Spa</text>

  <!-- Title -->
  <text x="400" y="438" text-anchor="middle" font-family="Georgia, serif" font-size="30" fill="#831843" font-weight="700">Couples Massage</text>

  <!-- Subtitle -->
  <text x="400" y="468" text-anchor="middle" font-family="Arial, sans-serif" font-size="14" fill="#db2777" letter-spacing="2">Together · Shared · Romantic</text>

  <!-- Bottom decorative line -->
  <line x1="320" y1="482" x2="480" y2="482" stroke="#db2777" stroke-width="1.5" opacity="0.4"/>
</svg>