<svg xmlns="http://www.w3.org/2000/svg" viewBox="0 0 800 500" width="800" height="500">
  <defs>
    <linearGradient id="bg" x1="0%" y1="0%" x2="100%" y2="100%">
      <stop offset="0%" stop-color="#ecfeff"/>
      <stop offset="50%" stop-color="#cffafe"/>
      <stop offset="100%" stop-color="#a5f3fc"/>
    </linearGradient>
    <linearGradient id="bottom-fade" x1="0%" y1="0%" x2="0%" y2="100%">
      <stop offset="0%" stop-color="#cffafe" stop-opacity="0"/>
      <stop offset="100%" stop-color="#a5f3fc" stop-opacity="0.4"/>
    </linearGradient>
  </defs>

  <!-- Background -->
  <rect width="800" height="500" fill="url(#bg)"/>
  <rect width="800" height="500" fill="url(#bottom-fade)"/>

  <!-- Decorative bg circles -->
  <circle cx="100" cy="100" r="120" fill="#a5f3fc" opacity="0.25"/>
  <circle cx="700" cy="400" r="100" fill="#a5f3fc" opacity="0.2"/>
  <circle cx="750" cy="80" r="70" fill="#cffafe" opacity="0.2"/>
  <circle cx="50" cy="430" r="80" fill="#cffafe" opacity="0.18"/>

  <!-- Service Illustration -->
  
      <!-- Foot silhouette -->
      <path d="M350 380 Q330 350 325 310 Q322 275 335 250 Q348 228 365 225 Q380 222 390 235 Q400 248 398 270 Q396 292 405 305 Q415 320 430 328 Q448 338 450 355 Q452 372 438 380 Q424 388 408 385 Q392 382 380 385 Q366 388 350 380Z" fill="#67e8f9" opacity="0.65"/>
      <!-- Reflexology zones dots -->
      <circle cx="375" cy="250" r="5" fill="#0e7490" opacity="0.6"/>
      <circle cx="360" cy="265" r="4" fill="#0891b2" opacity="0.55"/>
      <circle cx="380" cy="275" r="5" fill="#0e7490" opacity="0.6"/>
      <circle cx="355" cy="290" r="4" fill="#06b6d4" opacity="0.55"/>
      <circle cx="375" cy="300" r="5" fill="#0891b2" opacity="0.6"/>
      <circle cx="395" cy="290" r="4" fill="#0e7490" opacity="0.55"/>
      <circle cx="365" cy="315" r="4" fill="#06b6d4" opacity="0.5"/>
      <circle cx="380" cy="330" r="5" fill="#0891b2" opacity="0.55"/>
      <circle cx="395" cy="320" r="3" fill="#0e7490" opacity="0.5"/>
      <!-- Waves underneath -->
      <path d="M310 400 Q350 388 390 400 Q430 412 470 400" stroke="#0891b2" stroke-width="2.5" fill="none" opacity="0.4"/>
      <circle cx="240" cy="280" r="6" fill="#67e8f9" opacity="0.45"/>
      <circle cx="540" cy="280" r="5" fill="#22d3ee" opacity="0.4"/>
    

  <!-- Top badge -->
  <rect x="30" y="28" width="180" height="36" rx="18" fill="#0891b2" opacity="0.15"/>
  <text x="120" y="52" text-anchor="middle" font-family="Georgia, serif" font-size="13" fill="#164e63" font-weight="600" opacity="0.8">Pink Bra Spa</text>

  <!-- Title -->
  <text x="400" y="438" text-anchor="middle" font-family="Georgia, serif" font-size="30" fill="#164e63" font-weight="700">Foot Reflexology</text>

  <!-- Subtitle -->
  <text x="400" y="468" text-anchor="middle" font-family="Arial, sans-serif" font-size="14" fill="#0891b2" letter-spacing="2">Pressure · Points · Wellness</text>

  <!-- Bottom decorative line -->
  <line x1="320" y1="482" x2="480" y2="482" stroke="#0891b2" stroke-width="1.5" opacity="0.4"/>
</svg>