<svg xmlns="http://www.w3.org/2000/svg" viewBox="0 0 800 500" width="800" height="500">
  <defs>
    <linearGradient id="bg" x1="0%" y1="0%" x2="100%" y2="100%">
      <stop offset="0%" stop-color="#fff7ed"/>
      <stop offset="50%" stop-color="#fed7aa"/>
      <stop offset="100%" stop-color="#fdba74"/>
    </linearGradient>
    <linearGradient id="bottom-fade" x1="0%" y1="0%" x2="0%" y2="100%">
      <stop offset="0%" stop-color="#fed7aa" stop-opacity="0"/>
      <stop offset="100%" stop-color="#fdba74" stop-opacity="0.4"/>
    </linearGradient>
  </defs>

  <!-- Background -->
  <rect width="800" height="500" fill="url(#bg)"/>
  <rect width="800" height="500" fill="url(#bottom-fade)"/>

  <!-- Decorative bg circles -->
  <circle cx="100" cy="100" r="120" fill="#fdba74" opacity="0.25"/>
  <circle cx="700" cy="400" r="100" fill="#fdba74" opacity="0.2"/>
  <circle cx="750" cy="80" r="70" fill="#fed7aa" opacity="0.2"/>
  <circle cx="50" cy="430" r="80" fill="#fed7aa" opacity="0.18"/>

  <!-- Service Illustration -->
  
      <!-- Stones -->
      <ellipse cx="370" cy="320" rx="65" ry="35" fill="#78716c" opacity="0.75"/>
      <ellipse cx="430" cy="310" rx="50" ry="28" fill="#57534e" opacity="0.75"/>
      <ellipse cx="390" cy="295" rx="80" ry="40" fill="#44403c" opacity="0.7"/>
      <!-- Heat waves -->
      <path d="M340 255 Q352 235 340 215" stroke="#f97316" stroke-width="3" fill="none" stroke-linecap="round" opacity="0.7"/>
      <path d="M360 250 Q375 228 360 208" stroke="#fb923c" stroke-width="3" fill="none" stroke-linecap="round" opacity="0.65"/>
      <path d="M385 248 Q400 225 385 205" stroke="#f97316" stroke-width="3" fill="none" stroke-linecap="round" opacity="0.7"/>
      <path d="M410 252 Q425 230 410 210" stroke="#fb923c" stroke-width="3" fill="none" stroke-linecap="round" opacity="0.65"/>
      <path d="M432 258 Q447 237 432 217" stroke="#f97316" stroke-width="3" fill="none" stroke-linecap="round" opacity="0.6"/>
      <!-- Warm glow -->
      <ellipse cx="400" cy="300" rx="120" ry="60" fill="#f97316" opacity="0.08"/>
      <circle cx="240" cy="200" r="8" fill="#fdba74" opacity="0.5"/>
      <circle cx="560" cy="210" r="6" fill="#fb923c" opacity="0.4"/>
    

  <!-- Top badge -->
  <rect x="30" y="28" width="180" height="36" rx="18" fill="#f97316" opacity="0.15"/>
  <text x="120" y="52" text-anchor="middle" font-family="Georgia, serif" font-size="13" fill="#7c2d12" font-weight="600" opacity="0.8">Pink Bra Spa</text>

  <!-- Title -->
  <text x="400" y="438" text-anchor="middle" font-family="Georgia, serif" font-size="30" fill="#7c2d12" font-weight="700">Hot Stone Spa</text>

  <!-- Subtitle -->
  <text x="400" y="468" text-anchor="middle" font-family="Arial, sans-serif" font-size="14" fill="#f97316" letter-spacing="2">Warm · Deep · Melting</text>

  <!-- Bottom decorative line -->
  <line x1="320" y1="482" x2="480" y2="482" stroke="#f97316" stroke-width="1.5" opacity="0.4"/>
</svg>